<svg xmlns="http://www.w3.org/2000/svg" width="36" height="36" fill="none" viewBox="0 0 36 36"><rect width="36" height="36" fill="#DC780B" rx="5"/><path stroke="#fff" stroke-linecap="round" stroke-linejoin="round" stroke-width="2" d="M16.172 19.828C16.9221 20.5779 17.9393 20.9991 19 20.9991C20.0607 20.9991 21.0779 20.5779 21.828 19.828L25.828 15.828C26.5566 15.0736 26.9598 14.0632 26.9507 13.0144C26.9416 11.9656 26.5209 10.9624 25.7793 10.2207C25.0376 9.47909 24.0344 9.05842 22.9856 9.0493C21.9368 9.04019 20.9264 9.44337 20.172 10.172L19.072 11.272M19.828 16.172C19.0779 15.4221 18.0607 15.0009 17 15.0009C15.9393 15.0009 14.9221 15.4221 14.172 16.172L10.172 20.172C9.78996 20.541 9.48523 20.9824 9.27559 21.4704C9.06596 21.9584 8.95561 22.4833 8.951 23.0144C8.94638 23.5455 9.04759 24.0722 9.24871 24.5638C9.44984 25.0554 9.74685 25.502 10.1224 25.8776C10.498 26.2532 10.9446 26.5502 11.4362 26.7513C11.9278 26.9524 12.4545 27.0536 12.9856 27.049C13.5167 27.0444 14.0416 26.934 14.5296 26.7244C15.0176 26.5148 15.459 26.21 15.828 25.828L16.93 24.727L19.828 16.172Z"/></svg>